<svg width="20" height="20" viewBox="0 0 20 20" fill="none" xmlns="http://www.w3.org/2000/svg">
<path d="M1 16H19M13 16C13 16.7956 12.6839 17.5587 12.1213 18.1213C11.5587 18.6839 10.7956 19 10 19C9.20435 19 8.44129 18.6839 7.87868 18.1213C7.31607 17.5587 7 16.7956 7 16M17 16H3V8C3 6.14348 3.7375 4.36301 5.05025 3.05025C6.36301 1.7375 8.14348 1 10 1C11.8565 1 13.637 1.7375 14.9497 3.05025C16.2625 4.36301 17 6.14348 17 8V16Z" stroke="#FFCE85" stroke-width="2" stroke-linecap="round" stroke-linejoin="round"/>
</svg>
