<svg width="37" height="36" viewBox="0 0 37 36" fill="none" xmlns="http://www.w3.org/2000/svg">
<g id="Property 1=large">
<g id="Vector">
<path fill-rule="evenodd" clip-rule="evenodd" d="M26.2099 7.58118C27.7639 7.42632 29.078 8.7179 28.9501 10.2743L28.1798 19.6482C27.926 22.7369 25.7989 25.3517 22.8264 26.2289L18.5169 27.5006L15.9379 30.1247C14.4858 31.6022 12.1109 31.6228 10.6334 30.1707L6.63375 26.2397C5.15628 24.7876 5.1357 22.4128 6.58779 20.9353L9.16708 18.3109L10.3639 13.9804C11.1894 10.9932 13.7669 8.82115 16.8508 8.51383L26.2099 7.58118ZM10.3011 20.7245L16.0842 26.4083L14.1544 28.3719C13.6704 28.8644 12.8787 28.8713 12.3863 28.3872L8.38658 24.4563C7.89408 23.9722 7.88723 23.1806 8.37126 22.6881L10.3011 20.7245ZM24.5082 10.2638L19.6481 15.2088C19.4411 15.1553 19.2237 15.1277 18.9997 15.1297C17.6187 15.1416 16.5089 16.2709 16.5208 17.6519C16.5328 19.0329 17.662 20.1427 19.043 20.1308C20.424 20.1188 21.5339 18.9896 21.5219 17.6086C21.52 17.3846 21.4886 17.1677 21.4316 16.9616L26.2985 12.0097L25.6876 19.4433C25.5183 21.5025 24.1003 23.2457 22.1187 23.8305L18.2042 24.9857L11.687 18.5804L12.7742 14.6465C13.3245 12.655 15.0429 11.207 17.0988 11.0021L24.5082 10.2638Z" fill="#D1D1D1"/>
<path d="M29.7395 25.885C29.864 25.3717 30.594 25.3717 30.7185 25.885L31.0609 27.2973C31.1054 27.4805 31.2485 27.6236 31.4317 27.6681L32.844 28.0105C33.3573 28.135 33.3573 28.865 32.844 28.9895L31.4317 29.3319C31.2485 29.3764 31.1054 29.5195 31.0609 29.7027L30.7185 31.115C30.594 31.6283 29.864 31.6283 29.7395 31.115L29.3971 29.7027C29.3526 29.5195 29.2095 29.3764 29.0263 29.3319L27.614 28.9895C27.1007 28.865 27.1007 28.135 27.614 28.0105L29.0263 27.6681C29.2095 27.6236 29.3526 27.4805 29.3971 27.2973L29.7395 25.885Z" fill="#D1D1D1"/>
<path fill-rule="evenodd" clip-rule="evenodd" d="M30.229 26.4311L29.9844 27.4397C29.8867 27.8429 29.5719 28.1577 29.1687 28.2554L28.1601 28.5L29.1687 28.7446C29.5719 28.8423 29.8867 29.1571 29.9844 29.5603L30.229 30.5689L30.4736 29.5603C30.5713 29.1571 30.8861 28.8423 31.2893 28.7446L32.2979 28.5L31.2893 28.2554C30.8861 28.1577 30.5713 27.8429 30.4736 27.4397L30.229 26.4311ZM30.7185 25.885C30.594 25.3717 29.864 25.3717 29.7395 25.885L29.3971 27.2973C29.3526 27.4805 29.2095 27.6236 29.0263 27.6681L27.614 28.0105C27.1007 28.135 27.1007 28.865 27.614 28.9895L29.0263 29.3319C29.2095 29.3764 29.3526 29.5195 29.3971 29.7027L29.7395 31.115C29.864 31.6283 30.594 31.6283 30.7185 31.115L31.0609 29.7027C31.1054 29.5195 31.2485 29.3764 31.4317 29.3319L32.844 28.9895C33.3573 28.865 33.3573 28.135 32.844 28.0105L31.4317 27.6681C31.2485 27.6236 31.1054 27.4805 31.0609 27.2973L30.7185 25.885Z" fill="#D1D1D1"/>
<path d="M24.229 31.5C24.229 32.3284 23.5574 33 22.729 33C21.9006 33 21.229 32.3284 21.229 31.5C21.229 30.6716 21.9006 30 22.729 30C23.5574 30 24.229 30.6716 24.229 31.5Z" fill="#D1D1D1"/>
<path d="M33.229 4.5C33.229 5.32843 32.5574 6 31.729 6C30.9006 6 30.229 5.32843 30.229 4.5C30.229 3.67157 30.9006 3 31.729 3C32.5574 3 33.229 3.67157 33.229 4.5Z" fill="#D1D1D1"/>
<path d="M13.729 4.5C13.729 5.32843 13.0574 6 12.229 6C11.4006 6 10.729 5.32843 10.729 4.5C10.729 3.67157 11.4006 3 12.229 3C13.0574 3 13.729 3.67157 13.729 4.5Z" fill="#D1D1D1"/>
<path d="M5.73954 7.88496C5.864 7.37168 6.59401 7.37168 6.71847 7.88496L7.06094 9.29729C7.10537 9.48055 7.24846 9.62363 7.43171 9.66807L8.84404 10.0105C9.35732 10.135 9.35732 10.865 8.84404 10.9895L7.43171 11.3319C7.24846 11.3764 7.10537 11.5195 7.06094 11.7027L6.71847 13.115C6.59401 13.6283 5.864 13.6283 5.73954 13.115L5.39707 11.7027C5.35263 11.5195 5.20955 11.3764 5.02629 11.3319L3.61397 10.9895C3.10068 10.865 3.10068 10.135 3.61397 10.0105L5.02629 9.66807C5.20955 9.62363 5.35263 9.48055 5.39707 9.29729L5.73954 7.88496Z" fill="#D1D1D1"/>
<path fill-rule="evenodd" clip-rule="evenodd" d="M6.229 8.43109L5.98443 9.43971C5.88667 9.84288 5.57188 10.1577 5.16872 10.2554L4.1601 10.5L5.16872 10.7446C5.57188 10.8423 5.88667 11.1571 5.98443 11.5603L6.229 12.5689L6.47358 11.5603C6.57134 11.1571 6.88612 10.8423 7.28929 10.7446L8.29791 10.5L7.28929 10.2554C6.88612 10.1577 6.57134 9.84288 6.47358 9.43971L6.229 8.43109ZM6.71847 7.88496C6.59401 7.37168 5.864 7.37168 5.73954 7.88496L5.39707 9.29729C5.35263 9.48055 5.20955 9.62363 5.02629 9.66807L3.61397 10.0105C3.10068 10.135 3.10068 10.865 3.61397 10.9895L5.02629 11.3319C5.20955 11.3764 5.35263 11.5195 5.39707 11.7027L5.73954 13.115C5.864 13.6283 6.59401 13.6283 6.71847 13.115L7.06094 11.7027C7.10537 11.5195 7.24846 11.3764 7.43171 11.3319L8.84404 10.9895C9.35732 10.865 9.35732 10.135 8.84404 10.0105L7.43171 9.66807C7.24846 9.62363 7.10537 9.48055 7.06094 9.29729L6.71847 7.88496Z" fill="#D1D1D1"/>
</g>
</g>
</svg>
