<svg width="24" height="24" viewBox="0 0 24 24" fill="none" xmlns="http://www.w3.org/2000/svg">
<g id="check-mark-square">
<path id="primary" d="M15.1111 10.0556L11.2222 13.9444L8.88889 11.6111M18.2222 19H5.77778C5.5715 19 5.37367 18.9181 5.22781 18.7722C5.08194 18.6263 5 18.4285 5 18.2222V5.77778C5 5.5715 5.08194 5.37367 5.22781 5.22781C5.37367 5.08194 5.5715 5 5.77778 5H18.2222C18.4285 5 18.6263 5.08194 18.7722 5.22781C18.9181 5.37367 19 5.5715 19 5.77778V18.2222C19 18.4285 18.9181 18.6263 18.7722 18.7722C18.6263 18.9181 18.4285 19 18.2222 19Z" stroke="#D1D1D1" stroke-width="2" stroke-linecap="round" stroke-linejoin="round"/>
</g>
</svg>
