<svg width="13" height="12" viewBox="0 0 13 12" fill="none" xmlns="http://www.w3.org/2000/svg">
<g id="check-mark-square">
<path id="primary" d="M8.30556 5.02778L6.36111 6.97222L5.19444 5.80556M9.86111 9.5H3.63889C3.53575 9.5 3.43683 9.45903 3.3639 9.3861C3.29097 9.31317 3.25 9.21425 3.25 9.11111V2.88889C3.25 2.78575 3.29097 2.68683 3.3639 2.6139C3.43683 2.54097 3.53575 2.5 3.63889 2.5H9.86111C9.96425 2.5 10.0632 2.54097 10.1361 2.6139C10.209 2.68683 10.25 2.78575 10.25 2.88889V9.11111C10.25 9.21425 10.209 9.31317 10.1361 9.3861C10.0632 9.45903 9.96425 9.5 9.86111 9.5Z" stroke="#D1D1D1" stroke-linecap="round" stroke-linejoin="round"/>
</g>
</svg>
