<svg width="25" height="24" viewBox="0 0 25 24" fill="none" xmlns="http://www.w3.org/2000/svg">
<g id="state=default">
<path id="primary" d="M15.229 17V20C15.229 20.2652 15.1236 20.5196 14.9361 20.7071C14.7486 20.8946 14.4942 21 14.229 21H4.229C3.96379 21 3.70943 20.8946 3.5219 20.7071C3.33436 20.5196 3.229 20.2652 3.229 20V8C3.229 7.73478 3.33436 7.48043 3.5219 7.29289C3.70943 7.10536 3.96379 7 4.229 7H7.229" stroke="#B1B1B1" stroke-width="2" stroke-linecap="round" stroke-linejoin="round"/>
<path id="primary_2" d="M18.229 3H8.229C7.67672 3 7.229 3.44772 7.229 4V16C7.229 16.5523 7.67672 17 8.229 17H18.229C18.7813 17 19.229 16.5523 19.229 16V4C19.229 3.44772 18.7813 3 18.229 3Z" stroke="#B1B1B1" stroke-width="2" stroke-linecap="round" stroke-linejoin="round"/>
</g>
</svg>
