<svg width="24" height="24" viewBox="0 0 24 24" fill="none" xmlns="http://www.w3.org/2000/svg">
<g id="Property 1=small">
<path id="primary" d="M10.6409 9.72498L13.275 12.3591L8.63417 17H6V14.3658L10.6409 9.72498ZM16.8162 7.93574L15.0643 6.18377C15.0065 6.12554 14.9378 6.07932 14.8621 6.04778C14.7864 6.01624 14.7052 6 14.6232 6C14.5411 6 14.4599 6.01624 14.3842 6.04778C14.3085 6.07932 14.2398 6.12554 14.1821 6.18377L12.3928 7.97301L15.027 10.6072L16.8162 8.81793C16.8745 8.76018 16.9207 8.69147 16.9522 8.61576C16.9838 8.54005 17 8.45885 17 8.37684C17 8.29482 16.9838 8.21362 16.9522 8.13791C16.9207 8.06221 16.8745 7.99349 16.8162 7.93574Z" fill="#D1D1D1" stroke="#D1D1D1" stroke-width="0.621265" stroke-linecap="round" stroke-linejoin="round"/>
</g>
</svg>
