<svg width="25" height="24" viewBox="0 0 25 24" fill="none" xmlns="http://www.w3.org/2000/svg">
<g id="Property 1=Default">
<path id="primary" d="M10.97 9.29023L15.21 13.5302L7.74 21.0002H3.5V16.7602L10.97 9.29023ZM20.91 6.41023L18.09 3.59023C17.997 3.4965 17.8864 3.42211 17.7646 3.37134C17.6427 3.32057 17.512 3.29443 17.38 3.29443C17.248 3.29443 17.1173 3.32057 16.9954 3.37134C16.8736 3.42211 16.763 3.4965 16.67 3.59023L13.79 6.47023L18.03 10.7102L20.91 7.83023C21.0037 7.73727 21.0781 7.62667 21.1289 7.50481C21.1797 7.38295 21.2058 7.25224 21.2058 7.12023C21.2058 6.98822 21.1797 6.85751 21.1289 6.73566C21.0781 6.6138 21.0037 6.50319 20.91 6.41023Z" fill="#D1D1D1" stroke="#D1D1D1" stroke-linecap="round" stroke-linejoin="round"/>
</g>
</svg>
