<svg width="25" height="24" viewBox="0 0 25 24" fill="none" xmlns="http://www.w3.org/2000/svg">
<g id="Property 1=Variant2">
<path id="primary" d="M12.8689 12.4444H11.8022C11.6917 12.445 11.5849 12.4043 11.5027 12.3304C11.4205 12.2564 11.3688 12.1545 11.3578 12.0444L11.0022 8.48889C10.996 8.4269 11.0029 8.3643 11.0224 8.30514C11.0419 8.24597 11.0737 8.19158 11.1156 8.14548C11.1575 8.09938 11.2086 8.06261 11.2657 8.03754C11.3227 8.01248 11.3844 7.99969 11.4467 8.00001H13.2244C13.2867 7.99969 13.3484 8.01248 13.4055 8.03754C13.4625 8.06261 13.5136 8.09938 13.5555 8.14548C13.5974 8.19158 13.6292 8.24597 13.6487 8.30514C13.6683 8.3643 13.6751 8.4269 13.6689 8.48889L13.3133 12.0444C13.3023 12.1545 13.2506 12.2564 13.1684 12.3304C13.0863 12.4043 12.9795 12.445 12.8689 12.4444ZM13.2244 15.1111C13.2244 14.9353 13.1723 14.7634 13.0746 14.6173C12.977 14.4711 12.8381 14.3572 12.6757 14.2899C12.5133 14.2226 12.3346 14.205 12.1621 14.2393C11.9897 14.2736 11.8313 14.3583 11.707 14.4826C11.5827 14.6069 11.4981 14.7653 11.4638 14.9377C11.4295 15.1101 11.4471 15.2889 11.5143 15.4513C11.5816 15.6137 11.6955 15.7525 11.8417 15.8502C11.9879 15.9479 12.1598 16 12.3356 16C12.5713 16 12.7974 15.9063 12.9641 15.7397C13.1308 15.573 13.2244 15.3469 13.2244 15.1111Z" fill="#D1D1D1" stroke="#D1D1D1" stroke-width="0.444444" stroke-linecap="round" stroke-linejoin="round"/>
</g>
</svg>
