<svg width="25" height="24" viewBox="0 0 25 24" fill="none" xmlns="http://www.w3.org/2000/svg">
<g id="Property 1=Default">
<path id="primary" d="M13.7001 13H11.3001C11.0514 13.0013 10.8111 12.9097 10.6262 12.7433C10.4412 12.5769 10.325 12.3475 10.3001 12.1L9.50013 4.10001C9.48611 3.96054 9.50157 3.81967 9.54551 3.68656C9.58945 3.55344 9.66088 3.43105 9.75518 3.32733C9.84947 3.2236 9.96452 3.14086 10.0929 3.08447C10.2212 3.02809 10.36 2.99931 10.5001 3.00001H14.5001C14.6403 2.99931 14.7791 3.02809 14.9074 3.08447C15.0357 3.14086 15.1508 3.2236 15.2451 3.32733C15.3394 3.43105 15.4108 3.55344 15.4548 3.68656C15.4987 3.81967 15.5142 3.96054 15.5001 4.10001L14.7001 12.1C14.6753 12.3475 14.559 12.5769 14.3741 12.7433C14.1892 12.9097 13.9489 13.0013 13.7001 13ZM14.5001 19C14.5001 18.6045 14.3828 18.2178 14.1631 17.8889C13.9433 17.56 13.6309 17.3036 13.2655 17.1523C12.9 17.0009 12.4979 16.9613 12.11 17.0384C11.722 17.1156 11.3656 17.3061 11.0859 17.5858C10.8062 17.8655 10.6157 18.2219 10.5386 18.6098C10.4614 18.9978 10.501 19.3999 10.6524 19.7654C10.8037 20.1308 11.0601 20.4432 11.389 20.663C11.7179 20.8827 12.1046 21 12.5001 21C13.0306 21 13.5393 20.7893 13.9143 20.4142C14.2894 20.0392 14.5001 19.5304 14.5001 19Z" fill="#D1D1D1" stroke="#D1D1D1" stroke-linecap="round" stroke-linejoin="round"/>
</g>
</svg>
