<svg width="20" height="10" viewBox="0 0 20 10" fill="none" xmlns="http://www.w3.org/2000/svg">
<g id="Side Bar Expanded/Default">
<path id="Vector" fill-rule="evenodd" clip-rule="evenodd" d="M10.7555 9.61822C10.4879 9.86267 10.1249 10 9.74654 10C9.36813 10 9.00522 9.86267 8.7376 9.61822L0.664672 2.24185C0.528372 2.12156 0.419654 1.97768 0.344863 1.81859C0.270072 1.65951 0.230704 1.4884 0.229058 1.31527C0.227411 1.14213 0.263519 0.970431 0.335273 0.810182C0.407027 0.649933 0.512992 0.504345 0.646983 0.381914C0.780975 0.259484 0.940309 0.162663 1.11569 0.0970995C1.29107 0.0315363 1.47899 -0.00145527 1.66847 4.92329e-05C1.85796 0.00155374 2.04522 0.0375246 2.21933 0.105863C2.39343 0.174201 2.5509 0.273537 2.68255 0.398077L9.74654 6.85257L16.8105 0.398077C17.0797 0.160554 17.4402 0.0291241 17.8143 0.0320951C18.1885 0.035066 18.5464 0.1722 18.811 0.41396C19.0756 0.655721 19.2257 0.982765 19.229 1.32465C19.2322 1.66654 19.0884 1.99592 18.8284 2.24185L10.7555 9.61822Z" fill="#B1B1B1"/>
</g>
</svg>
