<svg width="20" height="10" viewBox="0 0 20 10" fill="none" xmlns="http://www.w3.org/2000/svg">
<g id="Side Bar Collapsed/Default">
<path id="Vector" fill-rule="evenodd" clip-rule="evenodd" d="M8.70253 0.381776C8.97015 0.137325 9.33306 0 9.71147 0C10.0899 0 10.4528 0.137325 10.7204 0.381776L18.7933 7.75815C18.9296 7.87844 19.0384 8.02232 19.1131 8.18141C19.1879 8.34049 19.2273 8.5116 19.229 8.68473C19.2306 8.85787 19.1945 9.02957 19.1227 9.18982C19.051 9.35007 18.945 9.49566 18.811 9.61809C18.677 9.74052 18.5177 9.83734 18.3423 9.9029C18.1669 9.96846 17.979 10.0015 17.7895 9.99995C17.6 9.99845 17.4128 9.96248 17.2387 9.89414C17.0646 9.8258 16.9071 9.72646 16.7755 9.60192L9.71147 3.14743L2.64747 9.60192C2.37833 9.83945 2.01785 9.97088 1.64367 9.9679C1.2695 9.96493 0.911573 9.8278 0.646984 9.58604C0.382395 9.34428 0.232309 9.01723 0.229057 8.67535C0.225805 8.33346 0.369646 8.00408 0.629599 7.75815L8.70253 0.381776Z" fill="#B1B1B1"/>
</g>
</svg>
