<svg width="37" height="36" viewBox="0 0 37 36" fill="none" xmlns="http://www.w3.org/2000/svg">
<g id="size=large">
<path id="primary" d="M5 27H32M23 27C23 28.1935 22.5259 29.3381 21.682 30.182C20.8381 31.0259 19.6935 31.5 18.5 31.5C17.3065 31.5 16.1619 31.0259 15.318 30.182C14.4741 29.3381 14 28.1935 14 27M29 27H8V15C8 12.2152 9.10625 9.54451 11.0754 7.57538C13.0445 5.60625 15.7152 4.5 18.5 4.5C21.2848 4.5 23.9555 5.60625 25.9246 7.57538C27.8938 9.54451 29 12.2152 29 15V27Z" stroke="#D1D1D1" stroke-width="2" stroke-linecap="round" stroke-linejoin="round"/>
</g>
</svg>
