<svg width="25" height="24" viewBox="0 0 25 24" fill="none" xmlns="http://www.w3.org/2000/svg">
<g id="size=small">
<path id="primary" d="M3.5 18H21.5M15.5 18C15.5 18.7956 15.1839 19.5587 14.6213 20.1213C14.0587 20.6839 13.2956 21 12.5 21C11.7044 21 10.9413 20.6839 10.3787 20.1213C9.81607 19.5587 9.5 18.7956 9.5 18M19.5 18H5.5V10C5.5 8.14348 6.2375 6.36301 7.55025 5.05025C8.86301 3.7375 10.6435 3 12.5 3C14.3565 3 16.137 3.7375 17.4497 5.05025C18.7625 6.36301 19.5 8.14348 19.5 10V18Z" stroke="#D1D1D1" stroke-width="2" stroke-linecap="round" stroke-linejoin="round"/>
</g>
</svg>
