<svg width="21" height="17" viewBox="0 0 21 17" fill="none" xmlns="http://www.w3.org/2000/svg">
<g id="Property 1=Default">
<path id="Vector" d="M2.171 16.915L19.621 9.43504C19.8014 9.3582 19.9552 9.23001 20.0633 9.06644C20.1714 8.90287 20.2291 8.71112 20.2291 8.51504C20.2291 8.31896 20.1714 8.12722 20.0633 7.96364C19.9552 7.80007 19.8014 7.67189 19.621 7.59504L2.171 0.11504C2.0199 0.0491344 1.85477 0.0218827 1.6905 0.035743C1.52624 0.0496033 1.36801 0.104139 1.23009 0.194432C1.09218 0.284724 0.978905 0.407932 0.900501 0.55294C0.822097 0.697948 0.781027 0.860193 0.780996 1.02504L0.770996 5.63504C0.770996 6.13504 1.141 6.56504 1.641 6.62504L15.771 8.51504L1.641 10.395C1.141 10.465 0.770996 10.895 0.770996 11.395L0.780996 16.005C0.780996 16.715 1.511 17.205 2.171 16.915Z" fill="#B1B1B1"/>
</g>
</svg>
