<svg width="25" height="24" viewBox="0 0 25 24" fill="none" xmlns="http://www.w3.org/2000/svg">
<g id="Property 1=purple">
<g id="Vector">
<path fill-rule="evenodd" clip-rule="evenodd" d="M17.5496 5.05412C18.5856 4.95088 19.4617 5.81193 19.3764 6.84953L18.8629 13.0988C18.6936 15.1579 17.2756 16.9011 15.294 17.4859L12.4209 18.3338L10.7016 20.0832C9.73352 21.0681 8.15027 21.0819 7.16528 20.1138L4.49883 17.4932C3.51385 16.5251 3.50013 14.9418 4.46819 13.9569L6.18772 12.2073L6.98559 9.32026C7.53596 7.3288 9.25428 5.88076 11.3102 5.67589L17.5496 5.05412ZM6.94373 13.8164L10.7992 17.6056L9.5126 18.9146C9.18992 19.2429 8.66216 19.2475 8.33384 18.9248L5.66739 16.3042C5.33906 15.9815 5.33448 15.4537 5.65717 15.1254L6.94373 13.8164ZM16.4151 6.84252L13.1751 10.1392C13.0371 10.1035 12.8921 10.0852 12.7428 10.0865C11.8221 10.0944 11.0822 10.8473 11.0902 11.7679C11.0982 12.6886 11.851 13.4285 12.7717 13.4205C13.6924 13.4125 14.4323 12.6597 14.4243 11.739C14.423 11.5897 14.4021 11.4451 14.3641 11.3077L17.6086 8.00645L17.2014 12.9622C17.0886 14.335 16.1432 15.4971 14.8221 15.887L12.2125 16.6571L7.86765 12.387L8.59244 9.76434C8.95936 8.4367 10.1049 7.47134 11.4755 7.33476L16.4151 6.84252Z" fill="#9CA5D8"/>
<path d="M19.9027 17.2566C19.9857 16.9145 20.4723 16.9145 20.5553 17.2566L20.7836 18.1982C20.8133 18.3204 20.9086 18.4158 21.0308 18.4454L21.9724 18.6737C22.3146 18.7567 22.3146 19.2433 21.9724 19.3263L21.0308 19.5546C20.9086 19.5842 20.8133 19.6796 20.7836 19.8018L20.5553 20.7434C20.4723 21.0855 19.9857 21.0855 19.9027 20.7434L19.6744 19.8018C19.6448 19.6796 19.5494 19.5842 19.4272 19.5546L18.4856 19.3263C18.1435 19.2433 18.1435 18.7567 18.4856 18.6737L19.4272 18.4454C19.5494 18.4158 19.6448 18.3204 19.6744 18.1982L19.9027 17.2566Z" fill="#9CA5D8"/>
<path fill-rule="evenodd" clip-rule="evenodd" d="M20.229 17.6207L20.066 18.2931C20.0008 18.5619 19.7909 18.7718 19.5221 18.8369L18.8497 19L19.5221 19.1631C19.7909 19.2282 20.0008 19.4381 20.066 19.7069L20.229 20.3793L20.3921 19.7069C20.4572 19.4381 20.6671 19.2282 20.9359 19.1631L21.6083 19L20.9359 18.8369C20.6671 18.7718 20.4572 18.5619 20.3921 18.2931L20.229 17.6207ZM20.5553 17.2566C20.4723 16.9145 19.9857 16.9145 19.9027 17.2566L19.6744 18.1982C19.6448 18.3204 19.5494 18.4158 19.4272 18.4454L18.4856 18.6737C18.1435 18.7567 18.1435 19.2433 18.4856 19.3263L19.4272 19.5546C19.5494 19.5842 19.6448 19.6796 19.6744 19.8018L19.9027 20.7434C19.9857 21.0855 20.4723 21.0855 20.5553 20.7434L20.7836 19.8018C20.8133 19.6796 20.9086 19.5842 21.0308 19.5546L21.9724 19.3263C22.3146 19.2433 22.3146 18.7567 21.9724 18.6737L21.0308 18.4454C20.9086 18.4158 20.8133 18.3204 20.7836 18.1982L20.5553 17.2566Z" fill="#9CA5D8"/>
<path d="M16.229 21C16.229 21.5523 15.7813 22 15.229 22C14.6767 22 14.229 21.5523 14.229 21C14.229 20.4477 14.6767 20 15.229 20C15.7813 20 16.229 20.4477 16.229 21Z" fill="#9CA5D8"/>
<path d="M22.229 3C22.229 3.55228 21.7813 4 21.229 4C20.6767 4 20.229 3.55228 20.229 3C20.229 2.44772 20.6767 2 21.229 2C21.7813 2 22.229 2.44772 22.229 3Z" fill="#9CA5D8"/>
<path d="M9.229 3C9.229 3.55228 8.78129 4 8.229 4C7.67672 4 7.229 3.55228 7.229 3C7.229 2.44772 7.67672 2 8.229 2C8.78129 2 9.229 2.44772 9.229 3Z" fill="#9CA5D8"/>
<path d="M3.90269 5.25664C3.98567 4.91445 4.47234 4.91445 4.55531 5.25664L4.78363 6.19819C4.81325 6.32036 4.90864 6.41575 5.03081 6.44538L5.97236 6.67369C6.31455 6.75667 6.31455 7.24333 5.97236 7.32631L5.03081 7.55462C4.90864 7.58425 4.81325 7.67964 4.78363 7.80181L4.55531 8.74336C4.47234 9.08555 3.98567 9.08555 3.90269 8.74336L3.67438 7.80181C3.64476 7.67964 3.54937 7.58425 3.4272 7.55462L2.48564 7.32631C2.14346 7.24333 2.14346 6.75667 2.48564 6.67369L3.4272 6.44538C3.54937 6.41575 3.64476 6.32036 3.67438 6.19819L3.90269 5.25664Z" fill="#9CA5D8"/>
<path fill-rule="evenodd" clip-rule="evenodd" d="M4.229 5.62073L4.06595 6.29314C4.00078 6.56192 3.79092 6.77178 3.52215 6.83695L2.84973 7L3.52215 7.16305C3.79092 7.22822 4.00078 7.43808 4.06595 7.70686L4.229 8.37927L4.39205 7.70686C4.45723 7.43808 4.66708 7.22822 4.93586 7.16305L5.60828 7L4.93586 6.83695C4.66708 6.77178 4.45723 6.56192 4.39205 6.29314L4.229 5.62073ZM4.55531 5.25664C4.47234 4.91445 3.98567 4.91445 3.90269 5.25664L3.67438 6.19819C3.64476 6.32036 3.54937 6.41575 3.4272 6.44538L2.48564 6.67369C2.14346 6.75667 2.14346 7.24333 2.48564 7.32631L3.4272 7.55462C3.54937 7.58425 3.64476 7.67964 3.67438 7.80181L3.90269 8.74336C3.98567 9.08555 4.47234 9.08555 4.55531 8.74336L4.78363 7.80181C4.81325 7.67964 4.90864 7.58425 5.03081 7.55462L5.97236 7.32631C6.31455 7.24333 6.31455 6.75667 5.97236 6.67369L5.03081 6.44538C4.90864 6.41575 4.81325 6.32036 4.78363 6.19819L4.55531 5.25664Z" fill="#9CA5D8"/>
</g>
</g>
</svg>
