<svg width="21" height="17" viewBox="0 0 21 17" fill="none" xmlns="http://www.w3.org/2000/svg">
<g id="Property 1=Hover">
<path id="Vector" d="M2.171 16.8828L19.621 9.40281C19.8014 9.32597 19.9552 9.19779 20.0633 9.03421C20.1714 8.87064 20.2291 8.67889 20.2291 8.48281C20.2291 8.28674 20.1714 8.09499 20.0633 7.93141C19.9552 7.76784 19.8014 7.63966 19.621 7.56281L2.171 0.0828133C2.0199 0.0169078 1.85477 -0.0103438 1.6905 0.00351645C1.52624 0.0173767 1.36801 0.0719128 1.23009 0.162205C1.09218 0.252498 0.978905 0.375706 0.900501 0.520713C0.822097 0.665721 0.781027 0.827967 0.780996 0.992814L0.770996 5.60281C0.770996 6.10281 1.141 6.53281 1.641 6.59281L15.771 8.48281L1.641 10.3628C1.141 10.4328 0.770996 10.8628 0.770996 11.3628L0.780996 15.9728C0.780996 16.6828 1.511 17.1728 2.171 16.8828Z" fill="#9CA5D8"/>
</g>
</svg>
