<svg width="13" height="13" viewBox="0 0 13 13" fill="none" xmlns="http://www.w3.org/2000/svg">
<path d="M5.64085 4.72498L8.27502 7.35915L3.63417 12H1V9.36583L5.64085 4.72498ZM11.8162 2.93574L10.0643 1.18377C10.0065 1.12554 9.93779 1.07932 9.86209 1.04778C9.78638 1.01624 9.70518 1 9.62316 1C9.54115 1 9.45995 1.01624 9.38424 1.04778C9.30853 1.07932 9.23982 1.12554 9.18207 1.18377L7.39282 2.97301L10.027 5.60718L11.8162 3.81793C11.8745 3.76018 11.9207 3.69147 11.9522 3.61576C11.9838 3.54005 12 3.45885 12 3.37684C12 3.29482 11.9838 3.21362 11.9522 3.13791C11.9207 3.06221 11.8745 2.99349 11.8162 2.93574Z" fill="#D1D1D1" stroke="#D1D1D1" stroke-width="0.621265" stroke-linecap="round" stroke-linejoin="round"/>
</svg>
