<svg width="25" height="25" viewBox="0 0 25 25" fill="none" xmlns="http://www.w3.org/2000/svg">
<path d="M2.18675 24.505L23.7099 13.9249C23.9324 13.8162 24.1222 13.6349 24.2555 13.4036C24.3889 13.1722 24.46 12.901 24.46 12.6236C24.46 12.3463 24.3889 12.0751 24.2555 11.8437C24.1222 11.6123 23.9324 11.431 23.7099 11.3223L2.18675 0.742227C2.00038 0.649007 1.79671 0.610461 1.5941 0.630065C1.3915 0.64967 1.19633 0.726809 1.02622 0.854523C0.85611 0.982238 0.716399 1.15651 0.619695 1.36162C0.52299 1.56672 0.472333 1.79621 0.472295 2.02938L0.459961 8.55001C0.459961 9.25723 0.916326 9.86545 1.53304 9.95031L18.9613 12.6236L1.53304 15.2828C0.916326 15.3818 0.459961 15.99 0.459961 16.6973L0.472295 23.2179C0.472295 24.2221 1.37269 24.9152 2.18675 24.505Z" fill="#B1B1B1"/>
</svg>
