<svg width="325" height="216" viewBox="0 0 325 216" fill="none" xmlns="http://www.w3.org/2000/svg">
<path d="M115.442 30.11C114.464 32.511 113.479 34.8923 113.033 37.4635C112.732 39.2048 111.264 44.0705 112.414 42.7288C116.184 38.331 117.673 30.0055 120.745 24.8747" stroke="#343541" stroke-width="3" stroke-linecap="round"/>
<path d="M124.605 17.9951C130.656 20.4606 134.587 26.8674 139.237 31.3529" stroke="#343541" stroke-width="3" stroke-linecap="round"/>
<path d="M141.586 33.3663C142.688 31.635 144.724 30.5992 146.585 29.8855C155.342 26.527 165.054 24.7683 174.256 23.1985C180.704 22.0987 187.626 20.5568 194.177 20.9842" stroke="#343541" stroke-width="3" stroke-linecap="round"/>
<path d="M193.237 25.8843C194.009 23.9881 194.315 21.3489 194.865 19.1517C196.172 13.9221 199.155 10.6027 201.359 5.94942C204.015 0.342223 221.182 18.3217 221.596 23.7039" stroke="#343541" stroke-width="3" stroke-linecap="round"/>
<path d="M109.3 52.9649C107.355 52.4423 102.982 63.2834 102.134 65.3654C100.372 69.6901 100.11 74.3354 101.362 78.786C103.177 85.2419 110.877 88.6344 116.462 91.5714C128.279 97.7862 141.384 101.006 154.318 103.826C166.636 106.512 177.374 101.612 188.828 97.93C200.795 94.0836 210.273 87.5186 221.103 81.6728C238.384 72.3453 244.477 61.7234 236.496 43.8941" stroke="#343541" stroke-width="3" stroke-linecap="round"/>
<path d="M150.849 59.6909C150.201 62.4083 151.146 65.8601 151.253 68.607C151.308 70.0279 150.899 72.0391 151.755 73.3005" stroke="#343541" stroke-width="3" stroke-linecap="round"/>
<path d="M195.032 43.7432C196.43 44.3125 196.842 47.2869 197.252 48.5709C197.581 49.5996 197.693 50.6195 198.31 51.5294" stroke="#343541" stroke-width="3" stroke-linecap="round"/>
<path d="M176.397 63.6499C179.565 64.2576 183.228 63.4275 186.156 62.1944" stroke="#343541" stroke-width="3" stroke-linecap="round"/>
<path d="M171.241 75.4686C173.835 76.5256 177.909 78.4644 179.824 75.4198C180.189 74.8393 181.174 71.6354 181.816 71.3651C182.419 71.1112 184.109 72.4443 184.698 72.5772C187.26 73.1549 190.219 72.889 192.653 71.8951C195.785 70.6157 196.937 67.6066 197.76 64.5453" stroke="#343541" stroke-width="3" stroke-linecap="round"/>
<path d="M251.703 37.9755C255.06 37.1197 258.826 36.361 261.883 34.6543" stroke="#343541" stroke-width="3" stroke-linecap="round"/>
<path d="M244.714 53.4613C249.704 52.1838 254.503 50.6106 259.683 50.054" stroke="#343541" stroke-width="3" stroke-linecap="round"/>
<path d="M84.8817 85.7756C89.2528 83.9353 93.7429 82.7048 98.3692 81.6517C101.908 80.8463 105.501 80.2203 108.972 79.1442C109.704 78.9174 110.151 78.7541 110.678 78.2923" stroke="#343541" stroke-width="3" stroke-linecap="round"/>
<path d="M95.8599 94.6619C97.906 93.8492 99.6178 92.8402 101.452 91.5838C103.591 90.1187 105.96 89.2037 108.337 88.2026" stroke="#343541" stroke-width="3" stroke-linecap="round"/>
<path d="M229.364 83.0121C229.678 82.2422 229.953 81.6846 230.812 81.3579C237.276 78.8995 244.554 77.9954 251.227 76.1721C257.186 74.5438 263.912 72.6439 268.61 68.3585C269.359 67.6752 269.469 65.8339 269.643 65.0648C270.766 60.0814 272.222 55.1906 273.371 50.217C274.045 47.2982 274.749 43.6393 276.543 41.1013C281.68 33.8361 286.871 45.8999 288.774 49.2576C290.193 51.7607 285.928 56.8101 289.337 56.9932C293.131 57.197 296.484 55.4989 300.091 56.8092C303.755 58.1402 305.571 65.6904 307.033 68.924C308.659 72.5177 310.829 75.9805 311.668 79.8663C312.431 83.4031 311.884 90.343 308.528 92.1294C306.52 93.1983 302.641 91.9746 300.577 91.1336" stroke="#343541" stroke-width="3" stroke-linecap="round"/>
<path d="M287.547 68.4136C286.514 71.7098 284.579 80.1999 286.565 83.6449C287.337 84.9843 291.549 83.7999 293.077 83.8996" stroke="#343541" stroke-width="3" stroke-linecap="round"/>
<path d="M296.75 71.4668C295.129 75.1427 292.585 77.8078 289.626 80.4041" stroke="#343541" stroke-width="3" stroke-linecap="round"/>
<path d="M297.059 79.2542C295.482 80.7709 293.416 83.9219 291.042 83.767" stroke="#343541" stroke-width="3" stroke-linecap="round"/>
<path d="M298.298 91.5985C295.33 92.2408 292.589 94.564 290.045 96.0903C282.825 100.422 276.177 105.338 269.32 110.204C262.284 115.197 254.766 119.31 247.415 123.797C244.738 125.431 242.347 126.892 240.446 129.315" stroke="#343541" stroke-width="3" stroke-linecap="round"/>
<path d="M148.948 109.446C151.2 108.89 154.468 111.258 156.27 112.081C166.302 116.664 176.591 120.647 186.655 125.158C193.071 128.033 199.536 130.754 206.045 133.407" stroke="#343541" stroke-width="3" stroke-linecap="round"/>
<path d="M206.045 133.406C209.053 129.695 212.563 122.034 217.373 120.61C219.238 120.058 220.201 117.693 222.682 118.595C225.995 119.798 226.944 125.744 226.556 128.84C226.19 131.755 224.259 134.858 223.146 137.588" stroke="#343541" stroke-width="3" stroke-linecap="round"/>
<path d="M223.124 141.062C230.963 144.256 231.157 154.934 226.456 160.992C223.251 165.122 218.002 169.762 212.929 171.305C210.543 172.031 206.506 174.686 204.23 173.758" stroke="#343541" stroke-width="3" stroke-linecap="round"/>
<path d="M207.992 147.432C209.488 143.76 204.999 154.777 203.503 158.449C202.524 160.853 201.219 164.256 202.239 166.679" stroke="#343541" stroke-width="3" stroke-linecap="round"/>
<path d="M212.128 156.083C212.425 155.353 210.184 157.33 209.83 157.545C208.082 158.605 206.305 159.482 204.673 160.706" stroke="#343541" stroke-width="3" stroke-linecap="round"/>
<path d="M211.973 161.591C211.352 162.735 210.152 162.377 209.041 162.331C207.732 162.277 206.298 163.759 205.248 164.422" stroke="#343541" stroke-width="3" stroke-linecap="round"/>
<path d="M134.125 123.604C142.451 127.548 150.261 134.552 157.95 139.58C164.534 143.885 172.411 146.996 178.445 151.954C180.432 153.587 183.298 154.164 184.993 156.015C186.08 157.202 187.551 159.302 188.988 159.887" stroke="#343541" stroke-width="3" stroke-linecap="round"/>
<path d="M130.896 104.18C124.263 122.814 121.456 143.052 117.987 162.453C116.363 171.532 114.569 180.565 113.46 189.705" stroke="#343541" stroke-width="3" stroke-linecap="round"/>
<path d="M248.543 136.793C247.443 139.492 247.214 142.554 246.891 145.406C245.705 155.859 244.874 166.393 244.427 176.904C243.974 187.557 243.287 198.125 242.213 208.735" stroke="#343541" stroke-width="3" stroke-linecap="round"/>
<path d="M101.315 197.293C97.5072 191.982 90.6874 189.556 86.7389 184.351C79.9168 175.357 75.9866 164.673 75.3653 153.483C74.8551 144.293 70.9943 136.005 65.9973 128.424C61.408 121.462 56.281 115.226 50.0279 109.691C48.9742 108.758 45.7387 104.357 43.9911 104.755C36.7228 106.409 27.7346 111.149 24.2425 118.182C21.3873 123.933 24.4561 130.567 26.2968 136.121C35.1794 162.926 51.6932 188.661 72.8648 207.291" stroke="#343541" stroke-width="3" stroke-linecap="round"/>
<path d="M226.536 28.7876C229.539 32.9641 233.273 37.1728 235.287 41.9573C236.686 45.2812 237.398 49.2042 238.143 52.7254C238.837 56.003 240.053 59.8794 238.723 63.1444" stroke="#343541" stroke-width="3" stroke-linecap="round"/>
<path d="M186.93 105.184C188.666 103.983 191.264 103.412 193.199 102.514C194.452 101.932 195.664 101.098 196.982 100.696C197.679 100.484 199.697 99.2707 199.616 100.77C199.437 104.082 197.696 107.198 197.001 110.396C196.732 111.632 196.446 114.198 194.757 114.198C192.775 114.198 190.108 111.541 189.267 109.858" stroke="#4E599C" stroke-width="3" stroke-linecap="round"/>
<path d="M193.607 114.532C192.838 117.607 190.269 120.6 190.269 123.88" stroke="#4E599C" stroke-width="3" stroke-linecap="round"/>
<path d="M195.944 114.532C196.679 114.679 197.325 115.495 197.891 115.923C200.526 117.914 203.546 119.25 206.441 120.801C207.954 121.612 209.464 122.711 210.633 123.88" stroke="#4E599C" stroke-width="3" stroke-linecap="round"/>
<path d="M210.632 123.879C210.632 125.911 209.631 127.583 209.631 129.555" stroke="#4E599C" stroke-width="3" stroke-linecap="round"/>
<path d="M186.262 161.604C188.752 163.867 190.785 166.68 192.846 169.337C194.896 171.981 197.397 174.41 199.208 177.22C199.922 178.328 200.664 180 200.951 177.776C201.142 176.299 201.461 174.192 202.287 172.954" stroke="#4E599C" stroke-width="3" stroke-linecap="round"/>
</svg>
