<svg width="213" height="210" viewBox="0 0 213 210" fill="none" xmlns="http://www.w3.org/2000/svg">
<path d="M51.1333 27.8203C52.9409 21.8553 54.1395 15.689 56.1308 9.7738C56.9623 7.30382 56.9456 4.92418 59.4624 3.66576" stroke="#343541" stroke-width="3.75" stroke-linecap="round"/>
<path d="M64.4602 1.99996C68.726 1.99996 71.2637 7.36249 73.5529 10.4911C74.9003 12.3326 76.392 14.2329 77.6017 16.1595C78.385 17.4069 79.6794 18.6953 80.2856 19.9076" stroke="#343541" stroke-width="3.75" stroke-linecap="round"/>
<path d="M89.8643 19.4912C100.274 19.4912 111.027 18.8908 121.099 21.9899" stroke="#343541" stroke-width="3.75" stroke-linecap="round"/>
<path d="M131.926 21.9899C134.362 21.2796 136.544 18.8167 138.52 17.3395C142.983 14.0035 147.513 10.705 152.124 7.5759C155.051 5.58956 156.398 6.25627 157.931 9.72759C160.605 15.7783 163.577 22.8159 163.577 29.4862" stroke="#343541" stroke-width="3.75" stroke-linecap="round"/>
<path d="M45.719 33.6507C42.8715 36.4982 40.1072 39.452 37.5981 42.6045C33.6214 47.6009 31.4386 52.7693 29.9862 59.0083C27.5435 69.5007 27.3907 83.0198 35.4927 91.1218C41.5989 97.228 49.5461 99.6821 57.4261 102.736C64.1584 105.346 70.7732 106.736 77.8787 107.873C93.3288 110.345 108.8 111.112 124.429 111.112C135.805 111.112 147.789 109.787 158.833 106.947C166.919 104.868 171.172 95.1336 173.525 87.8132C175.877 80.4976 178.365 72.5823 176.672 64.885C175.233 58.3472 171.962 52.2596 170.656 45.7279" stroke="#343541" stroke-width="3.75" stroke-linecap="round"/>
<path d="M66.1256 64.4685C64.2959 67.3961 63.5422 71.9291 62.7939 75.2964" stroke="#343541" stroke-width="3.75" stroke-linecap="round"/>
<path d="M111.936 68.6331C111.936 72.3815 111.212 75.7835 110.687 79.461" stroke="#343541" stroke-width="3.75" stroke-linecap="round"/>
<path d="M81.1179 79.8775C83.4918 80.0357 85.8113 80.2939 88.1977 80.2939" stroke="#343541" stroke-width="3.75" stroke-linecap="round"/>
<path d="M183.567 69.466H194.811" stroke="#343541" stroke-width="3.75" stroke-linecap="round"/>
<path d="M182.317 84.8749C188.34 85.0073 194.202 86.5408 200.225 86.5408" stroke="#343541" stroke-width="3.75" stroke-linecap="round"/>
<path d="M9.0708 61.1369C12.293 62.3591 15.2392 63.7865 18.6493 64.4685" stroke="#343541" stroke-width="3.75" stroke-linecap="round"/>
<path d="M8.65454 76.9622C12.1457 76.7569 15.6469 75.9802 19.066 75.2964" stroke="#343541" stroke-width="3.75" stroke-linecap="round"/>
<path d="M16.5801 179.624C21.4424 176.585 25.1736 171.586 28.9812 167.408C33.5927 162.348 38.3292 157.511 43.2333 152.74C46.1169 149.934 50.4212 146.073 54.4777 145.058" stroke="#343541" stroke-width="3.75" stroke-linecap="round"/>
<path d="M15.3306 181.707C21.1285 182.69 26.8897 183.791 32.6367 185.038C38.4236 186.294 44.3433 186.647 50.1973 187.514C53.3572 187.982 56.5108 188.46 59.6601 188.995C60.8661 189.199 62.8016 189.198 63.6396 190.036" stroke="#343541" stroke-width="3.75" stroke-linecap="round"/>
<path d="M65.3057 189.619C79.3347 197.436 95.3361 200.089 109.867 206.694" stroke="#343541" stroke-width="3.75" stroke-linecap="round"/>
<path d="M111.949 207.944C119.969 199.923 129.172 192.786 135.964 183.627C138.472 180.246 140.312 176.425 142.905 173.1C143.849 171.891 144.968 171.117 145.265 169.629" stroke="#343541" stroke-width="3.75" stroke-linecap="round"/>
<path d="M56.0074 144.5C55.6127 144.556 58.2959 145.962 58.2986 145.963C64.1321 148.88 70.0973 151.52 76.021 154.245C78.5284 155.398 80.9764 157.295 83.5848 158.164" stroke="#343541" stroke-width="3.75" stroke-linecap="round"/>
<path d="M87.311 159.655C97.2734 161.423 107.104 164.543 117.152 165.756C119.423 166.03 121.674 165.947 123.943 166.363C125.851 166.713 127.703 167.285 129.629 167.55C132.678 167.97 135.914 168.03 138.932 168.654C142.271 169.345 145.47 170.09 148.925 170.09" stroke="#343541" stroke-width="3.75" stroke-linecap="round"/>
<path d="M26.0396 103.561C29.2432 103.775 38.1175 105.334 38.2671 99.7988C38.3225 97.7479 38.3821 95.6655 37.7794 93.6851C37.4157 92.49 35.8509 89.5159 34.7835 88.9822C29.4252 86.303 24.7103 83.809 18.4976 83.809C15.899 83.809 13.0842 83.2522 11.4433 85.6902C10.1956 87.5438 10.0498 90.1087 10.0498 92.2742" stroke="#343541" stroke-width="3.75" stroke-linecap="round"/>
<path d="M24.7855 105.442C23.6067 109.026 23.2179 112.083 23.2179 115.858C23.2179 119.679 22.6686 123.707 24.4023 127.215C27.1797 132.834 33.3467 129.23 36.4905 125.647C41.26 120.212 45.7846 114.534 50.5817 109.118C51.4966 108.085 52.2892 106.959 53.1596 105.895C53.716 105.215 54.8655 104.539 55.1975 103.875" stroke="#343541" stroke-width="3.75" stroke-linecap="round"/>
<path d="M8.48243 94.4688C7.98449 97.3071 7.15293 99.9945 6.35742 102.76C4.44945 109.392 3.37372 116.101 2.56028 122.947C1.49766 131.891 1.56278 141.077 6.21808 149.057C7.16745 150.685 8.5242 152.071 10.3287 152.715C15.6533 154.614 22.2346 154.231 27.7468 153.934C33.5189 153.624 39.2576 152.313 44.5031 149.841C45.8059 149.227 47.6297 148.482 48.3002 147.141" stroke="#343541" stroke-width="3.75" stroke-linecap="round"/>
<path d="M160.229 107.01C164.624 110.729 167.952 115.529 170.505 120.666C174.963 129.635 177.752 139.054 178.221 149.075C178.48 154.585 178.413 160.107 178.413 165.622C178.413 167.331 178.548 169.102 178.256 170.795C177.973 172.438 178.19 174.055 177.786 175.672" stroke="#343541" stroke-width="3.75" stroke-linecap="round"/>
<path d="M149.882 144.006C149.882 151.177 149.715 158.113 148.384 165.186C147.837 168.097 147.374 170.838 147.374 173.791" stroke="#343541" stroke-width="3.75" stroke-linecap="round"/>
<path d="M145.179 175.672C142.473 175.728 138.047 176.021 136.226 178.424C134.231 181.058 132.748 185.443 133.335 188.77C134.02 192.654 138.208 195.374 141.626 196.626C146.947 198.574 153.887 197.694 159.392 197.236C162.363 196.988 165.884 195.36 167.927 193.247C169.922 191.183 171.072 188.961 172.595 186.506C175.507 181.816 177.509 176.082 178.413 170.656" stroke="#343541" stroke-width="3.75" stroke-linecap="round"/>
<path d="M177.282 171.18C180.265 166.132 182.466 161.418 184.273 155.868C186.644 148.585 185.897 140.955 186.381 133.455C186.729 128.056 186.799 123.159 188.517 118.004C189.982 113.608 193.254 111.955 197.615 110.792C202.316 109.539 207.485 109.542 209.515 114.704C210.62 117.514 210.446 121.161 210.625 124.135C210.902 128.743 210.477 133.234 209.987 137.81C208.862 148.303 208.007 159.416 204.245 169.349C203.388 171.611 202.518 177.747 199.751 178.669" stroke="#343541" stroke-width="3.75" stroke-linecap="round"/>
<path d="M46.105 171.283C48.6746 171.841 50.9851 173.001 53.4903 173.756C56.3599 174.621 59.2664 175.327 62.1296 176.229C64.239 176.894 66.4446 178.494 68.6788 178.494" stroke="#343541" stroke-width="3.75" stroke-linecap="round"/>
<path d="M56.7656 161.877C60.1118 164.333 63.2974 166.554 67.0075 168.409C68.139 168.974 69.262 169.715 70.5608 169.715" stroke="#343541" stroke-width="3.75" stroke-linecap="round"/>
<path d="M85.9233 182.883C92.3124 185.34 98.9535 187.064 105.362 189.467" stroke="#343541" stroke-width="3.75" stroke-linecap="round"/>
<path d="M91.5664 173.791C95.8549 173.975 99.723 175.311 103.829 176.404C106.024 176.988 108.723 176.999 110.691 178.18" stroke="#343541" stroke-width="3.75" stroke-linecap="round"/>
<path d="M150.519 45.2943C152.48 43.4022 154.659 41.8811 156.846 40.2674C159.228 38.5101 161.505 36.5901 164.005 34.9978C168.336 32.24 172.987 29.9702 177.369 27.2842C177.927 26.9425 180.726 24.795 181.2 25.6375C182.103 27.2419 182.31 29.2604 183.28 30.7857C183.833 31.6542 179.004 34.2535 178.41 34.6165C175.893 36.1541 173.482 37.8318 170.991 39.4007C168.529 40.9506 166.292 42.8856 163.901 44.5489C162.662 45.4105 161.177 46.1726 160.191 47.3223" stroke="#343541" stroke-width="2.5" stroke-linecap="round"/>
<path d="M160.816 47.0103C159.368 47.1552 158.492 48.4718 157.219 48.7264C156.494 48.8714 155.649 49.5712 155.044 49.9745" stroke="#343541" stroke-width="2.5" stroke-linecap="round"/>
<path d="M151.144 44.5142C151.424 46.8493 152.599 48.1714 153.952 49.9744" stroke="#343541" stroke-width="2.5" stroke-linecap="round"/>
<path d="M151.299 44.9822C150.168 46.7131 148.942 48.3798 147.798 50.1131C147.667 50.3114 145.57 53.6476 145.666 53.6839C146.352 53.9453 147.988 53.1711 148.691 53.0252C149.585 52.8396 150.468 52.5593 151.377 52.4705C152.529 52.3582 153.555 51.8887 154.575 51.3785" stroke="#343541" stroke-width="2.5" stroke-linecap="round"/>
<path d="M149.115 50.4425C149.34 50.7801 149.427 51.4317 149.427 51.8466" stroke="#343541" stroke-width="2.5" stroke-linecap="round"/>
<path d="M155.044 51.2225C156.715 51.0554 157.968 49.358 159.247 48.4231C160.118 47.7869 161.036 47.3193 161.596 46.3863" stroke="#343541" stroke-width="2.5" stroke-linecap="round"/>
<path d="M100.405 112.682C98.255 112.682 96.0654 112.834 94.0154 113.539C93.3324 113.773 91.667 114.24 91.4793 115.054C90.9128 117.508 92.5364 119.551 94.0318 121.312C96.1759 123.836 98.6789 126.484 101.64 128.064C102.07 128.293 103.325 127.444 103.657 127.273C105.138 126.514 106.241 125.358 107.453 124.243C108.663 123.131 109.803 121.915 111.06 120.859C111.601 120.405 112.131 119.989 112.476 119.36C112.783 118.802 112.86 118.061 112.27 117.639C111.67 117.211 110.852 116.959 110.187 116.684C108.504 115.987 106.82 115.301 105.09 114.724C102.644 113.909 100.124 113.158 97.589 112.682" stroke="#343541" stroke-width="2.5" stroke-linecap="round"/>
<path d="M102.925 127.8C102.925 128.786 103.442 129.725 103.806 130.616C105.398 134.522 107.14 138.372 108.713 142.284C109.215 143.532 109.671 144.807 110.154 146.063C110.397 146.696 110.824 147.502 110.78 148.204C110.697 149.532 109.704 150.788 109.158 151.959C108.272 153.858 107.214 155.684 106.482 157.649C106.028 158.866 105.487 160.252 104.703 161.296" stroke="#343541" stroke-width="2.5" stroke-linecap="round"/>
<path d="M100.257 128.689C100.115 130.038 98.4908 131.551 97.6797 132.51C96.5442 133.853 95.2461 135.029 94.0237 136.289C92.4733 137.888 91.1119 139.623 89.7173 141.353C89.1852 142.014 88.6615 142.581 88.1858 143.28C87.624 144.106 88.1207 145.464 88.2516 146.343C88.7649 149.79 89.1409 153.222 89.1409 156.702" stroke="#343541" stroke-width="2.5" stroke-linecap="round"/>
</svg>
