<svg width="61" height="60" viewBox="0 0 61 60" fill="none" xmlns="http://www.w3.org/2000/svg">
<rect x="1" y="0.5" width="59" height="59" rx="29.5" stroke="#9CA5D8"/>
<path fill-rule="evenodd" clip-rule="evenodd" d="M38.4809 19.5812C40.0349 19.4263 41.349 20.7179 41.2211 22.2743L40.4508 31.6482C40.1969 34.7369 38.0699 37.3517 35.0974 38.2289L30.7879 39.5006L28.2089 42.1247C26.7568 43.6022 24.3819 43.6228 22.9044 42.1707L18.9047 38.2397C17.4273 36.7876 17.4067 34.4128 18.8588 32.9353L21.4381 30.3109L22.6349 25.9804C23.4604 22.9932 26.0379 20.8211 29.1218 20.5138L38.4809 19.5812ZM22.5721 32.7245L28.3552 38.4083L26.4254 40.3719C25.9414 40.8644 25.1497 40.8713 24.6572 40.3872L20.6576 36.4563C20.1651 35.9722 20.1582 35.1806 20.6423 34.6881L22.5721 32.7245ZM36.7792 22.2638L31.9191 27.2088C31.7121 27.1553 31.4947 27.1277 31.2707 27.1297C29.8897 27.1416 28.7799 28.2709 28.7918 29.6519C28.8038 31.0329 29.933 32.1427 31.314 32.1308C32.695 32.1188 33.8049 30.9896 33.7929 29.6086C33.791 29.3846 33.7596 29.1677 33.7026 28.9616L38.5695 24.0097L37.9586 31.4433C37.7893 33.5025 36.3713 35.2457 34.3897 35.8305L30.4752 36.9857L23.958 30.5804L25.0452 26.6465C25.5955 24.655 27.3139 23.207 29.3698 23.0021L36.7792 22.2638Z" fill="#D1D1D1"/>
<path d="M42.0105 37.885C42.135 37.3717 42.865 37.3717 42.9895 37.885L43.3319 39.2973C43.3764 39.4805 43.5195 39.6236 43.7027 39.6681L45.115 40.0105C45.6283 40.135 45.6283 40.865 45.115 40.9895L43.7027 41.3319C43.5195 41.3764 43.3764 41.5195 43.3319 41.7027L42.9895 43.115C42.865 43.6283 42.135 43.6283 42.0105 43.115L41.6681 41.7027C41.6236 41.5195 41.4805 41.3764 41.2973 41.3319L39.885 40.9895C39.3717 40.865 39.3717 40.135 39.885 40.0105L41.2973 39.6681C41.4805 39.6236 41.6236 39.4805 41.6681 39.2973L42.0105 37.885Z" fill="#D1D1D1"/>
<path fill-rule="evenodd" clip-rule="evenodd" d="M42.5 38.4311L42.2554 39.4397C42.1577 39.8429 41.8429 40.1577 41.4397 40.2554L40.4311 40.5L41.4397 40.7446C41.8429 40.8423 42.1577 41.1571 42.2554 41.5603L42.5 42.5689L42.7446 41.5603C42.8423 41.1571 43.1571 40.8423 43.5603 40.7446L44.5689 40.5L43.5603 40.2554C43.1571 40.1577 42.8423 39.8429 42.7446 39.4397L42.5 38.4311ZM42.9895 37.885C42.865 37.3717 42.135 37.3717 42.0105 37.885L41.6681 39.2973C41.6236 39.4805 41.4805 39.6236 41.2973 39.6681L39.885 40.0105C39.3717 40.135 39.3717 40.865 39.885 40.9895L41.2973 41.3319C41.4805 41.3764 41.6236 41.5195 41.6681 41.7027L42.0105 43.115C42.135 43.6283 42.865 43.6283 42.9895 43.115L43.3319 41.7027C43.3764 41.5195 43.5195 41.3764 43.7027 41.3319L45.115 40.9895C45.6283 40.865 45.6283 40.135 45.115 40.0105L43.7027 39.6681C43.5195 39.6236 43.3764 39.4805 43.3319 39.2973L42.9895 37.885Z" fill="#D1D1D1"/>
<path d="M36.5 43.5C36.5 44.3284 35.8284 45 35 45C34.1716 45 33.5 44.3284 33.5 43.5C33.5 42.6716 34.1716 42 35 42C35.8284 42 36.5 42.6716 36.5 43.5Z" fill="#D1D1D1"/>
<path d="M45.5 16.5C45.5 17.3284 44.8284 18 44 18C43.1716 18 42.5 17.3284 42.5 16.5C42.5 15.6716 43.1716 15 44 15C44.8284 15 45.5 15.6716 45.5 16.5Z" fill="#D1D1D1"/>
<path d="M26 16.5C26 17.3284 25.3284 18 24.5 18C23.6716 18 23 17.3284 23 16.5C23 15.6716 23.6716 15 24.5 15C25.3284 15 26 15.6716 26 16.5Z" fill="#D1D1D1"/>
<path d="M18.0105 19.885C18.135 19.3717 18.865 19.3717 18.9895 19.885L19.3319 21.2973C19.3764 21.4805 19.5195 21.6236 19.7027 21.6681L21.115 22.0105C21.6283 22.135 21.6283 22.865 21.115 22.9895L19.7027 23.3319C19.5195 23.3764 19.3764 23.5195 19.3319 23.7027L18.9895 25.115C18.865 25.6283 18.135 25.6283 18.0105 25.115L17.6681 23.7027C17.6236 23.5195 17.4805 23.3764 17.2973 23.3319L15.885 22.9895C15.3717 22.865 15.3717 22.135 15.885 22.0105L17.2973 21.6681C17.4805 21.6236 17.6236 21.4805 17.6681 21.2973L18.0105 19.885Z" fill="#D1D1D1"/>
<path fill-rule="evenodd" clip-rule="evenodd" d="M18.5 20.4311L18.2554 21.4397C18.1577 21.8429 17.8429 22.1577 17.4397 22.2554L16.4311 22.5L17.4397 22.7446C17.8429 22.8423 18.1577 23.1571 18.2554 23.5603L18.5 24.5689L18.7446 23.5603C18.8423 23.1571 19.1571 22.8423 19.5603 22.7446L20.5689 22.5L19.5603 22.2554C19.1571 22.1577 18.8423 21.8429 18.7446 21.4397L18.5 20.4311ZM18.9895 19.885C18.865 19.3717 18.135 19.3717 18.0105 19.885L17.6681 21.2973C17.6236 21.4805 17.4805 21.6236 17.2973 21.6681L15.885 22.0105C15.3717 22.135 15.3717 22.865 15.885 22.9895L17.2973 23.3319C17.4805 23.3764 17.6236 23.5195 17.6681 23.7027L18.0105 25.115C18.135 25.6283 18.865 25.6283 18.9895 25.115L19.3319 23.7027C19.3764 23.5195 19.5195 23.3764 19.7027 23.3319L21.115 22.9895C21.6283 22.865 21.6283 22.135 21.115 22.0105L19.7027 21.6681C19.5195 21.6236 19.3764 21.4805 19.3319 21.2973L18.9895 19.885Z" fill="#D1D1D1"/>
</svg>
