<svg width="24" height="24" viewBox="0 0 24 24" fill="none" xmlns="http://www.w3.org/2000/svg">
<g id="Caution">
<path id="primary" d="M13.1999 13H10.7999C10.5511 13.0013 10.3108 12.9097 10.1259 12.7433C9.941 12.5769 9.82476 12.3475 9.79989 12.1L8.99989 4.10001C8.98587 3.96054 9.00133 3.81967 9.04527 3.68656C9.0892 3.55344 9.16064 3.43105 9.25493 3.32733C9.34923 3.2236 9.46428 3.14086 9.59261 3.08447C9.72095 3.02809 9.85971 2.99931 9.99989 3.00001H13.9999C14.1401 2.99931 14.2788 3.02809 14.4072 3.08447C14.5355 3.14086 14.6505 3.2236 14.7448 3.32733C14.8391 3.43105 14.9106 3.55344 14.9545 3.68656C14.9984 3.81967 15.0139 3.96054 14.9999 4.10001L14.1999 12.1C14.175 12.3475 14.0588 12.5769 13.8739 12.7433C13.689 12.9097 13.4487 13.0013 13.1999 13ZM13.9999 19C13.9999 18.6045 13.8826 18.2178 13.6628 17.8889C13.4431 17.56 13.1307 17.3036 12.7653 17.1523C12.3998 17.0009 11.9977 16.9613 11.6097 17.0384C11.2217 17.1156 10.8654 17.3061 10.5857 17.5858C10.306 17.8655 10.1155 18.2219 10.0383 18.6098C9.96115 18.9978 10.0008 19.3999 10.1521 19.7654C10.3035 20.1308 10.5598 20.4432 10.8887 20.663C11.2176 20.8827 11.6043 21 11.9999 21C12.5303 21 13.039 20.7893 13.4141 20.4142C13.7892 20.0392 13.9999 19.5304 13.9999 19Z" fill="#DE5C64" stroke="#DE5C64" stroke-linecap="round" stroke-linejoin="round"/>
</g>
</svg>
